<svg width="601" height="515" viewBox="0 0 601 515" fill="none" xmlns="http://www.w3.org/2000/svg">
<g clip-path="url(#clip0_1074_987)">
<path d="M311.536 432.535L329.137 427.35L324.001 445.001L329.137 462.602L311.536 457.466L293.885 462.602L299.071 445.001L293.885 427.35L311.536 432.535Z" fill="black"/>
<path fill-rule="evenodd" clip-rule="evenodd" d="M329.873 426.611L324.522 445L329.873 463.337L311.536 457.986L293.147 463.337L298.549 445L293.147 426.611L311.536 432.014L329.873 426.611ZM294.623 428.087L299.592 445L294.623 461.866L311.536 456.945L328.402 461.866L323.481 445L328.402 428.087L311.536 433.056L294.623 428.087Z" fill="white"/>
</g>
<g clip-path="url(#clip1_1074_987)">
<path d="M125.485 345.509L156.961 362.659L125.485 379.946L108.266 411.353L91.0471 379.946L59.5711 362.659L91.0471 345.509L108.266 313.964L125.485 345.509Z" fill="black"/>
<path fill-rule="evenodd" clip-rule="evenodd" d="M158.003 362.658L125.853 380.315L108.266 412.394L90.6787 380.315L58.5293 362.658L90.6787 345.141L108.266 312.921L125.853 345.141L158.003 362.658ZM108.266 315.008L91.4155 345.878L60.613 362.661L91.4155 379.579L108.266 410.314L125.116 379.579L155.919 362.661L125.116 345.878L108.266 315.008Z" fill="white"/>
</g>
<path fill-rule="evenodd" clip-rule="evenodd" d="M554.439 396.335C559.458 394.813 562.864 392.384 564.68 389.092C566.496 385.799 566.733 381.622 565.344 376.566C563.952 371.505 560.953 365.653 556.432 359.127C547.393 346.078 532.408 330.518 512.602 313.455C473.002 279.342 414.3 239.363 345.881 201.624C277.463 163.885 212.333 135.559 162.355 120.262C137.357 112.611 116.202 108.236 100.343 107.552C92.4112 107.21 85.8615 107.794 80.8384 109.317C75.8201 110.839 72.414 113.268 70.5979 116.56C68.7818 119.853 68.5443 124.029 69.9341 129.086C71.3253 134.147 74.3251 139.999 78.8456 146.525C87.8842 159.574 102.87 175.134 122.676 192.196C162.276 226.31 220.978 266.288 289.396 304.027C357.815 341.767 422.945 370.093 472.923 385.39C497.92 393.041 519.076 397.416 534.935 398.1C542.866 398.442 549.416 397.858 554.439 396.335ZM288.913 304.903C425.834 380.427 549.691 418.336 565.555 389.575C581.42 360.813 483.285 276.273 346.364 200.749C209.444 125.225 85.5868 87.3157 69.7222 116.077C53.8577 144.839 151.993 229.379 288.913 304.903Z" fill="white"/>
<path fill-rule="evenodd" clip-rule="evenodd" d="M534.209 433.009C539.227 431.487 542.633 429.058 544.449 425.766C546.265 422.473 546.503 418.296 545.113 413.24C543.722 408.179 540.722 402.327 536.202 395.801C527.163 382.751 512.177 367.191 492.371 350.129C452.772 316.016 394.069 276.037 325.651 238.298C257.232 200.559 192.103 172.233 142.124 156.936C117.127 149.285 95.9715 144.91 80.1124 144.226C72.1808 143.884 65.631 144.468 60.6079 145.991C55.5896 147.513 52.1835 149.941 50.3674 153.234C48.5513 156.526 48.3138 160.703 49.7036 165.76C51.0948 170.821 54.0947 176.672 58.6151 183.199C67.6538 196.248 82.6396 211.808 102.446 228.87C142.045 262.984 200.747 302.962 269.166 340.701C337.585 378.44 402.714 406.767 452.693 422.064C477.69 429.715 498.845 434.09 514.704 434.774C522.636 435.116 529.186 434.532 534.209 433.009ZM268.683 341.577C405.604 417.101 529.46 455.01 545.325 426.249C561.19 397.487 463.054 312.947 326.134 237.423C189.213 161.898 65.3563 123.99 49.4918 152.751C33.6272 181.512 131.762 266.053 268.683 341.577Z" fill="white"/>
<path fill-rule="evenodd" clip-rule="evenodd" d="M513.98 469.682C518.999 468.161 522.405 465.732 524.221 462.439C526.037 459.147 526.274 454.97 524.885 449.914C523.493 444.852 520.494 439.001 515.973 432.475C506.934 419.425 491.949 403.865 472.143 386.803C432.543 352.689 373.841 312.711 305.422 274.972C237.004 237.233 171.874 208.907 121.896 193.61C96.8983 185.959 75.743 181.584 59.8839 180.899C51.9523 180.557 45.4025 181.141 40.3794 182.665C35.3611 184.186 31.955 186.615 30.1389 189.908C28.3228 193.2 28.0853 197.377 29.4751 202.433C30.8663 207.495 33.8662 213.346 38.3866 219.873C47.4253 232.922 62.4111 248.482 82.2171 265.544C121.817 299.658 180.519 339.636 248.937 377.375C317.356 415.114 382.486 443.441 432.464 458.737C457.461 466.388 478.617 470.764 494.476 471.448C502.407 471.79 508.957 471.206 513.98 469.682ZM248.455 378.251C385.375 453.775 509.232 491.684 525.096 462.922C540.961 434.161 442.826 349.621 305.905 274.096C168.985 198.572 45.1278 160.663 29.2633 189.425C13.3987 218.186 111.534 302.726 248.455 378.251Z" fill="white"/>
<path d="M147.537 104.5C147.537 113.06 140.598 120 132.037 120C123.477 120 116.537 113.06 116.537 104.5C116.537 95.9396 123.477 89 132.037 89C140.598 89 147.537 95.9396 147.537 104.5Z" fill="#B9FF66"/>
<path d="M431.537 435C431.537 440.523 427.06 445 421.537 445C416.015 445 411.537 440.523 411.537 435C411.537 429.477 416.015 425 421.537 425C427.06 425 431.537 429.477 431.537 435Z" fill="#B9FF66"/>
<path d="M105.537 64.5C105.537 77.4787 95.0161 88 82.0374 88C69.0587 88 58.5374 77.4787 58.5374 64.5C58.5374 51.5213 69.0587 41 82.0374 41C95.0161 41 105.537 51.5213 105.537 64.5Z" fill="white"/>
<path d="M306.51 383.59C300.206 385.744 293.001 381.475 290.495 374.071L251.496 259.81L274.285 252.015L313.323 366.433C315.828 373.758 312.774 381.436 306.51 383.59Z" fill="black"/>
<path d="M297.806 383.221L297.804 383.22C294.289 381.481 291.477 378.22 290.107 374.185L290.107 374.184L251.108 259.923L251.108 259.923L251.105 259.913C251.045 259.75 251.135 259.53 251.341 259.462L251.341 259.462L251.345 259.46L274.129 251.667C274.13 251.666 274.131 251.666 274.131 251.666C274.275 251.618 274.348 251.641 274.38 251.66L274.637 251.231L274.38 251.66C274.503 251.734 274.563 251.807 274.593 251.899L274.594 251.902L313.632 366.319C316.19 373.882 312.954 381.74 306.581 383.94C305.503 384.312 304.305 384.5 303.103 384.5C301.341 384.5 299.538 384.088 297.806 383.221ZM252.43 259.885L251.958 260.047L252.119 260.52L290.843 373.957C290.843 373.957 290.843 373.957 290.843 373.958C292.135 377.792 294.803 380.959 298.146 382.59L298.147 382.591C300.836 383.895 303.753 384.15 306.398 383.24L306.398 383.24C312.524 381.129 315.386 373.585 312.973 366.545L274.21 252.95L274.048 252.476L273.574 252.639L252.43 259.885Z" fill="black" stroke="white"/>
<path d="M270.541 153.789L270.648 153.713L270.704 153.594L271.29 152.343L271.291 152.34L313.48 63.6189C310.473 75.5322 310.625 91.045 313.764 108.56C317.715 130.601 326.406 155.885 339.582 181.306L339.582 181.306C352.777 206.746 368.458 228.47 384.213 244.467C396.931 257.38 409.73 266.595 421.338 270.997L321.903 253.95L321.774 253.928L321.65 253.972L235.67 284.745L195.256 291.19L175.039 288.996L175.215 288.878L173.772 288.767C171.915 288.625 169.556 287.259 167.109 284.855C164.681 282.469 162.235 279.126 160.2 275.171L160.199 275.17C158.124 271.153 156.773 267.188 156.215 263.816C155.653 260.417 155.914 257.726 156.925 256.164L156.97 256.094L156.99 256.013L157.013 255.923L168.225 236.099L196.85 206.369L270.541 153.789Z" fill="#B9FF66" stroke="white"/>
<path d="M447.267 270.603C473.694 256.873 468.584 194.629 435.852 131.577C403.121 68.5251 355.164 28.5417 328.736 42.2716C302.309 56.0015 307.419 118.246 340.15 181.298C372.881 244.35 420.839 284.333 447.267 270.603Z" fill="white"/>
<path d="M435.643 274.185C424.132 274.185 410.271 267.761 395.353 255.266C375.031 238.266 355.101 212.06 339.243 181.428C315.241 135.05 305.335 87.4964 314.027 60.2726C316.925 51.1849 321.78 44.8392 328.397 41.4313C341.553 34.6939 360.074 40.4129 380.591 57.5698C400.913 74.57 420.843 100.775 436.701 131.407C460.742 177.785 470.648 225.339 461.917 252.563C459.019 261.651 454.164 267.996 447.547 271.404C443.984 273.284 439.99 274.185 435.643 274.185ZM340.379 40.4129C336.346 40.4129 332.587 41.2355 329.22 42.9982C322.994 46.171 318.452 52.2033 315.711 60.8601C307.136 87.6922 317.003 134.737 340.809 180.723C373.23 243.279 420.764 283.312 446.803 269.955C453.028 266.782 457.57 260.75 460.311 252.093C468.886 225.261 459.019 178.216 435.213 132.23C406.982 77.782 367.357 40.4129 340.379 40.4129Z" fill="black"/>
<path d="M435.643 274.186C424.132 274.186 410.271 267.762 395.352 255.266C375.031 238.266 355.101 212.061 339.243 181.429C315.241 135.05 305.335 87.4968 314.027 60.273C316.925 51.1853 321.78 44.8396 328.397 41.4317C337.207 36.8879 348.719 38.0238 361.679 44.6829C374.091 51.0678 387.521 62.3882 400.599 77.3907C400.913 77.7432 400.873 78.2916 400.521 78.605C400.169 78.9184 399.62 78.8792 399.307 78.5266C372.76 48.0516 345.899 34.4201 329.219 42.9986C322.994 46.1714 318.452 52.2037 315.711 60.8605C307.136 87.6927 317.003 134.737 340.809 180.724C369.001 235.132 408.665 272.541 435.604 272.541C439.637 272.541 443.396 271.718 446.763 269.955C452.989 266.782 457.531 260.75 460.272 252.093C468.847 225.261 458.98 178.217 435.173 132.23C428.086 118.52 420.099 105.633 411.524 93.9208C411.249 93.5291 411.328 92.9807 411.719 92.7065C412.111 92.4323 412.659 92.5107 412.933 92.9024C421.586 104.693 429.574 117.658 436.74 131.447C460.742 177.786 470.648 225.339 461.916 252.563C459.019 261.651 454.164 267.997 447.546 271.405C443.983 273.285 439.989 274.186 435.643 274.186Z" fill="black"/>
<path d="M387.304 190.339C393.426 187.159 392.248 172.751 384.674 158.159C377.099 143.567 365.995 134.317 359.873 137.498C353.751 140.678 354.928 155.086 362.503 169.678C370.078 184.269 381.182 193.52 387.304 190.339Z" fill="#B9FF66"/>
<path d="M384.624 191.848C377.89 191.848 368.493 183.152 361.719 170.03C356.08 159.141 353.77 147.938 355.845 141.474C356.589 139.203 357.803 137.597 359.487 136.735C366.143 133.327 377.537 142.61 385.447 157.848C391.085 168.737 393.395 179.94 391.32 186.404C390.576 188.676 389.362 190.282 387.679 191.143C386.739 191.613 385.721 191.848 384.624 191.848ZM362.541 137.714C361.719 137.714 360.936 137.871 360.27 138.223C358.978 138.889 358.038 140.143 357.451 141.984C355.532 148.016 357.764 158.749 363.207 169.247C370.411 183.152 381.257 192.514 386.856 189.616C388.148 188.95 389.088 187.696 389.676 185.855C391.594 179.784 389.323 169.09 383.92 158.592C377.577 146.41 368.493 137.714 362.541 137.714Z" fill="#B9FF66"/>
<path d="M429.692 259.575C419.59 259.575 407.452 253.934 394.374 243.005C376.598 228.12 359.134 205.166 345.273 178.373C324.247 137.792 315.594 96.1535 323.19 72.2983C325.735 64.3074 330.003 58.7452 335.837 55.729C349.228 48.8741 368.923 56.7866 389.91 77.4297C390.263 77.7823 390.263 78.2915 389.91 78.644C389.558 78.9966 389.049 78.9966 388.697 78.644C368.257 58.5493 349.267 50.7151 336.62 57.2567C331.217 60.0378 327.262 65.2475 324.834 72.8075C317.356 96.2318 325.97 137.361 346.8 177.59C371.429 225.183 406.081 257.851 429.653 257.851C433.177 257.851 436.427 257.107 439.403 255.619C444.806 252.837 448.761 247.628 451.188 240.068C458.667 216.643 450.053 175.514 429.222 135.285C422.918 123.142 415.87 111.744 408.274 101.442C408 101.05 408.078 100.501 408.47 100.227C408.861 99.953 409.41 100.031 409.684 100.423C417.358 110.843 424.445 122.281 430.788 134.502C451.815 175.083 460.468 216.722 452.872 240.577C450.327 248.568 446.059 254.13 440.225 257.146C437.014 258.752 433.49 259.575 429.692 259.575Z" fill="black"/>
<path d="M195.309 292.517C195.27 292.517 195.23 292.517 195.23 292.517L173.578 290.167C173.46 290.167 173.343 290.128 173.225 290.05C168.761 289.344 163.123 283.704 159.012 275.791C154.626 267.448 153.334 259.3 155.723 255.462L155.762 255.344L167.039 235.367C167.078 235.289 167.117 235.249 167.156 235.21L195.857 205.401C195.896 205.362 195.935 205.323 195.974 205.284L269.508 152.794L316.024 54.9845C316.142 54.7886 316.298 54.632 316.533 54.5536C316.768 54.4753 317.003 54.4753 317.199 54.5928C317.63 54.7886 317.825 55.2979 317.63 55.7288C305.844 80.994 315.163 131.211 340.77 180.645C366.417 230.157 402.166 266.821 429.692 271.874C430.123 271.953 430.436 272.344 430.397 272.814C430.358 273.245 429.966 273.559 429.535 273.598L428.791 273.559C428.752 273.559 428.713 273.559 428.674 273.559L321.937 255.266L236.108 285.976C236.069 285.976 235.991 286.015 235.952 286.015L195.426 292.478C195.387 292.517 195.348 292.517 195.309 292.517ZM174.204 288.522L195.309 290.794L235.639 284.331L321.623 253.581C321.78 253.542 321.898 253.503 322.054 253.542L418.141 269.994C392.181 258.595 361.836 224.947 339.322 181.468C316.964 138.301 306.979 94.4689 312.461 66.775L271.035 153.735C270.957 153.852 270.878 153.97 270.761 154.048L197.11 206.655L168.526 236.307L157.25 256.284C157.25 256.323 157.211 256.363 157.211 256.363C155.175 259.535 156.545 267.37 160.5 275.008C164.376 282.49 169.975 288.13 173.812 288.404C173.969 288.404 174.087 288.444 174.204 288.522Z" fill="black"/>
<path d="M270.368 153.069L316.845 55.3369H316.884C305.333 80.093 313.752 130.271 340.025 181.037C366.376 231.881 402.634 267.8 429.573 272.736L428.829 272.697L322.053 254.404L319.586 253.973C307.174 251.779 290.611 235.641 278.747 212.608C266.57 188.988 264.416 165.447 269.82 154.244L270.368 153.069Z" fill="white"/>
<path d="M429.573 273.598C429.534 273.598 429.573 273.598 429.573 273.598L428.79 273.558C428.751 273.558 428.712 273.558 428.673 273.558L321.896 255.266L319.43 254.835C306.313 252.524 289.672 235.719 277.964 213.039C264.69 187.265 264.025 164.311 269.037 153.891L269.624 152.716L316.101 55.0236C316.219 54.8277 316.375 54.671 316.61 54.5927C316.845 54.5143 317.08 54.5143 317.276 54.6319C317.707 54.8277 317.902 55.3369 317.707 55.7678C305.921 81.0331 315.24 131.25 340.847 180.684C366.494 230.196 402.243 266.86 429.769 271.913C430.2 271.992 430.513 272.383 430.474 272.853C430.356 273.245 430.004 273.598 429.573 273.598ZM312.382 66.7749L271.151 153.46L270.564 154.635C265.591 164.977 267.04 188.087 279.491 212.217C290.964 234.466 307.135 250.918 319.743 253.111L322.21 253.542L418.101 269.994C392.141 258.595 361.795 224.947 339.281 181.467C316.924 138.301 306.939 94.4687 312.382 66.7749Z" fill="black"/>
<path d="M194.133 292.4C194.094 292.4 194.055 292.4 194.055 292.4L173.538 290.206C173.42 290.206 173.303 290.167 173.185 290.089C168.722 289.384 163.083 283.743 158.972 275.831C154.626 267.448 153.334 259.3 155.722 255.462L155.761 255.344L167.038 235.367C167.273 234.936 167.782 234.819 168.213 235.054C168.643 235.289 168.761 235.798 168.526 236.229L157.249 256.284C157.249 256.323 157.21 256.363 157.21 256.363C155.174 259.535 156.544 267.37 160.499 275.008C164.375 282.49 169.975 288.13 173.812 288.404C173.929 288.404 174.086 288.444 174.164 288.522L194.212 290.676C194.682 290.716 195.034 291.146 194.956 291.616C194.917 292.047 194.564 292.4 194.133 292.4Z" fill="black"/>
<path d="M195.504 291.538C188.847 291.068 179.528 281.628 172.754 268.584C165.589 254.757 163.905 240.459 168.291 235.367L156.583 255.736L156.505 255.893C154.273 259.34 155.565 267.292 159.755 275.4C163.866 283.391 169.661 288.953 173.733 289.266L173.616 289.345L195.504 291.538Z" fill="white"/>
<path d="M195.504 292.4C195.465 292.4 195.465 292.4 195.426 292.4C195.269 292.4 195.073 292.361 194.917 292.361L173.538 290.206C173.42 290.206 173.303 290.167 173.185 290.089C168.722 289.384 163.083 283.743 158.972 275.831C154.626 267.448 153.334 259.301 155.722 255.462L155.761 255.344L166.059 237.404C166.451 236.386 166.96 235.485 167.586 234.74C167.86 234.388 168.369 234.349 168.722 234.584C169.074 234.858 169.192 235.328 168.957 235.72L167.508 238.187C165.198 244.416 167.469 256.637 173.42 268.075C179.881 280.57 188.691 289.697 194.995 290.52L195.465 290.559C195.935 290.598 196.287 291.029 196.248 291.499C196.287 292.048 195.935 292.4 195.504 292.4ZM174.164 288.522L189.122 290.05C183.366 286.368 177.023 278.769 171.972 268.976C167.077 259.536 164.65 249.743 165.041 242.692L157.249 256.284C157.249 256.324 157.21 256.363 157.21 256.363C155.174 259.536 156.544 267.37 160.499 275.008C164.375 282.49 169.975 288.13 173.812 288.405C173.929 288.405 174.086 288.444 174.164 288.522Z" fill="black"/>
<path d="M234.345 285.388L236.068 285.035C226.749 286.994 212.027 272.892 201.651 252.876C191.04 232.429 189.043 212.021 196.56 205.988L195.582 206.968L168.369 235.249C163.905 240.263 165.55 254.639 172.754 268.544C179.685 281.941 189.513 291.499 196.208 291.459L234.345 285.388Z" fill="black"/>
<path d="M194.588 207.142L194.599 207.13L194.608 207.118C195.063 206.511 195.596 205.977 196.168 205.519C196.416 205.327 196.779 205.352 197.006 205.573C197.235 205.836 197.22 206.191 197.011 206.4L197.011 206.4L197.007 206.404L195.48 208.01L195.469 208.021L195.46 208.033C194.064 209.902 193.203 212.48 192.837 215.566C192.47 218.653 192.597 222.264 193.191 226.214C194.381 234.114 197.445 243.394 202.213 252.6C207.352 262.529 213.515 270.907 219.5 276.6C222.493 279.446 225.448 281.627 228.214 282.994C230.978 284.36 233.575 284.923 235.841 284.498L235.858 284.495L235.874 284.49L235.971 284.457C236.304 284.41 236.598 284.601 236.685 284.93C236.736 285.261 236.552 285.555 236.23 285.648C236.186 285.65 236.116 285.659 236.044 285.702L234.518 286H234.503H234.483L234.463 286.003L196.342 292.072C196.275 292.076 196.217 292.092 196.184 292.101C196.166 292.106 196.158 292.109 196.15 292.111C192.691 292.102 188.502 289.762 184.259 285.659C180.019 281.559 175.767 275.736 172.194 268.861C168.564 261.832 166.293 254.653 165.534 248.561C165.154 245.515 165.153 242.749 165.545 240.412C165.936 238.076 166.717 236.185 167.887 234.871L194.588 207.142ZM192.378 211.892L191.957 211.652L168.816 235.703L168.816 235.703L168.809 235.711C167.687 236.975 166.99 238.826 166.672 241.072C166.353 243.322 166.412 245.989 166.82 248.911C167.637 254.755 169.859 261.646 173.316 268.308C176.693 274.829 180.77 280.453 184.81 284.455C186.83 286.456 188.845 288.056 190.763 289.159C192.68 290.262 194.514 290.877 196.168 290.887L196.189 290.888L196.209 290.884L229.883 285.518L229.927 285.035C225.44 283.449 220.402 279.653 215.399 274.159C210.399 268.669 205.448 261.5 201.129 253.192C197.028 245.278 194.187 237.299 192.7 230.121C191.211 222.939 191.081 216.578 192.378 211.892Z" fill="white" stroke="white" stroke-width="0.5"/>
<path d="M359.878 137.479C353.731 140.612 354.632 155.145 362.463 169.638C375.58 193.885 386.034 191.025 387.248 190.594C387.287 190.594 387.287 190.634 387.248 190.634L364.734 208.77C358.116 199.486 351.812 189.145 346.018 177.981C340.497 167.288 335.837 156.633 332.157 146.292L359.878 137.479Z" fill="black"/>
<path d="M364.733 209.632C364.694 209.632 364.655 209.632 364.616 209.632C364.381 209.593 364.185 209.475 364.029 209.279C357.255 199.761 350.951 189.341 345.273 178.413C339.831 167.915 335.132 157.221 331.373 146.645C331.295 146.41 331.295 146.175 331.412 145.979C331.53 145.783 331.686 145.627 331.921 145.548L359.643 136.735C360.074 136.617 360.544 136.813 360.701 137.244C360.857 137.675 360.701 138.145 360.309 138.341C358.978 139.007 357.999 140.338 357.411 142.297C355.493 148.447 357.842 159.336 363.285 169.325C376.089 192.984 385.956 190.281 387.013 189.89C387.404 189.733 387.874 189.929 388.07 190.281C388.266 190.634 388.188 191.143 387.874 191.417L365.282 209.436C365.125 209.554 364.929 209.632 364.733 209.632ZM333.292 146.841C337.012 157.065 341.554 167.406 346.8 177.59C352.282 188.166 358.39 198.233 364.929 207.517L384.468 191.77C380.004 191.574 371.586 188.245 361.719 170.03C356.002 159.493 353.653 148.369 355.728 141.67C356.002 140.809 356.315 140.064 356.707 139.359L333.292 146.841Z" fill="black"/>
<path d="M475.724 81.5974C493.624 72.1937 500.547 50.1159 491.187 32.2852C481.828 14.4545 459.729 7.62311 441.829 17.0268C423.929 26.4305 417.006 48.5083 426.366 66.339C435.725 84.1697 457.824 91.0011 475.724 81.5974Z" fill="black"/>
<path d="M442.105 41.2357C443.827 38.8854 446.373 37.4361 449.27 37.1227C451.463 36.8877 453.499 37.3578 455.417 38.5329C456.396 39.1205 457.258 39.8647 458.08 40.7656C458.667 39.708 459.372 38.7679 460.194 37.9845C461.8 36.4177 463.718 35.5167 465.872 35.2817C468.769 34.9683 471.588 35.8301 473.781 37.7495C475.935 39.6297 477.305 42.3717 477.658 45.4662C478.01 48.639 477.149 51.6943 474.956 55.063C472.998 58.0792 470.022 61.2129 466.577 64.895C465.402 66.1484 464.071 67.5586 462.7 69.0471C462.348 69.4388 461.839 69.713 461.291 69.7522C460.743 69.8305 460.233 69.6738 459.764 69.3605C458.08 68.1853 456.475 67.0885 455.065 66.1484C450.915 63.3281 447.312 60.8995 444.728 58.3926C441.831 55.6114 440.343 52.7911 439.99 49.6183C439.677 46.5238 440.421 43.5468 442.105 41.2357Z" fill="white"/>
<path d="M577.273 83.5915C590.377 70.4819 590.377 49.2271 577.273 36.1175C564.168 23.0079 542.922 23.0079 529.818 36.1175C516.713 49.2271 516.713 70.4819 529.818 83.5915C542.922 96.7011 564.168 96.7011 577.273 83.5915Z" fill="#B9FF66"/>
<path d="M553.539 94.2727C534.588 94.2727 519.121 78.8394 519.121 59.8414C519.121 40.8827 534.549 25.4102 553.539 25.4102C572.529 25.4102 587.956 40.8435 587.956 59.8414C587.956 78.8002 572.529 94.2727 553.539 94.2727ZM553.539 27.1337C535.527 27.1337 520.844 41.7836 520.844 59.8414C520.844 77.8601 535.488 92.5492 553.539 92.5492C571.55 92.5492 586.233 77.8993 586.233 59.8414C586.233 41.8228 571.589 27.1337 553.539 27.1337Z" fill="#B9FF66"/>
<path d="M562.622 63.1703C560.743 63.1703 559.098 64.0713 558.002 65.4814L546.686 61.0551C546.686 60.8984 546.725 60.7809 546.725 60.6242C546.725 60.35 546.686 60.0758 546.647 59.8016L558.237 54.4352C559.294 55.6495 560.86 56.4329 562.622 56.4721C565.833 56.4721 568.496 53.8476 568.496 50.5965C568.496 47.3453 565.872 44.6816 562.622 44.6816C559.412 44.6816 556.749 47.3061 556.749 50.5573C556.749 50.8315 556.788 51.1057 556.827 51.3799L545.237 56.7463C544.18 55.532 542.614 54.7486 540.852 54.7094C537.641 54.7094 534.979 57.3339 534.979 60.5851C534.979 63.8363 537.602 66.4999 540.852 66.4999C542.732 66.4999 544.376 65.5989 545.472 64.1888L556.788 68.6151C556.788 68.7718 556.749 68.8893 556.749 69.046C556.749 72.2972 559.373 74.9608 562.622 74.9608C565.833 74.9608 568.496 72.3364 568.496 69.0852C568.457 65.834 565.833 63.2095 562.622 63.1703Z" fill="black"/>
<path d="M563.067 189.992C578.433 179.321 582.294 158.282 571.69 142.998C561.086 127.714 540.032 123.974 524.666 134.644C509.299 145.314 505.438 166.354 516.043 181.638C526.647 196.922 547.7 200.662 563.067 189.992Z" fill="black"/>
<path d="M535.412 178.372L530.478 151.619C530.243 150.248 531.496 149.112 532.827 149.464L561.998 157.729C563.486 158.16 563.838 160.08 562.625 161.02L538.348 179.508C537.291 180.37 535.686 179.783 535.412 178.372Z" fill="white"/>
<path d="M543.536 299.581C562.512 290.339 570.452 267.552 561.271 248.685C552.09 229.818 529.264 222.015 510.287 231.257C491.311 240.498 483.371 263.285 492.552 282.152C501.733 301.019 524.559 308.822 543.536 299.581Z" fill="#B9FF66"/>
<path d="M526.718 304.346C522.646 304.346 518.495 303.719 514.462 302.348C504.595 299.058 496.608 292.164 491.987 282.841C487.367 273.558 486.662 263.021 489.99 253.15C496.882 232.82 519.044 221.734 539.443 228.511C549.311 231.801 557.298 238.695 561.919 248.018C566.539 257.302 567.244 267.839 563.915 277.71C558.355 294.005 543.046 304.346 526.718 304.346ZM527.11 228.276C511.487 228.276 496.843 238.147 491.557 253.737C488.385 263.177 489.051 273.244 493.475 282.097C497.9 290.989 505.535 297.609 514.971 300.742C534.471 307.205 555.654 296.629 562.232 277.201C565.403 267.76 564.738 257.693 560.313 248.841C555.889 239.949 548.253 233.329 538.817 230.195C534.941 228.864 530.986 228.276 527.11 228.276Z" fill="black"/>
<path d="M546.375 259.261C545.984 268.779 529.891 291.028 526.054 296.238C525.662 296.787 524.84 296.747 524.487 296.16C522.06 292.243 514.033 279.081 509.843 268.427C508.16 264.196 507.103 260.358 507.22 257.655C507.651 246.844 516.774 238.422 527.581 238.853C538.388 239.362 546.806 248.45 546.375 259.261Z" fill="black"/>
<path d="M533.13 264.826C536.632 261.323 536.632 255.644 533.13 252.141C529.629 248.638 523.951 248.638 520.45 252.141C516.948 255.644 516.948 261.323 520.45 264.826C523.951 268.329 529.629 268.329 533.13 264.826Z" fill="#B9FF66"/>
<defs>
<clipPath id="clip0_1074_987">
<rect width="36" height="36" fill="white" transform="translate(293.537 427)"/>
</clipPath>
<clipPath id="clip1_1074_987">
<rect width="70.3259" height="70.3259" fill="white" transform="translate(108.266 313) rotate(45)"/>
</clipPath>
</defs>
</svg>
