<?xml version="1.0" encoding="UTF-8"?>
<!DOCTYPE svg PUBLIC "-//W3C//DTD SVG 1.1//EN" "http://www.w3.org/Graphics/SVG/1.1/DTD/svg11.dtd">
<!-- Creator: CorelDRAW -->
<svg xmlns="http://www.w3.org/2000/svg" xml:space="preserve" width="3508px" height="2480px" version="1.1" style="shape-rendering:geometricPrecision; text-rendering:geometricPrecision; image-rendering:optimizeQuality; fill-rule:evenodd; clip-rule:evenodd"
viewBox="0 0 3508 2480.4"
 xmlns:xlink="http://www.w3.org/1999/xlink"
 xmlns:xodm="http://www.corel.com/coreldraw/odm/2003">
 <defs>
  <style type="text/css">
   <![CDATA[
    .str1 {stroke:black;stroke-width:10;stroke-miterlimit:22.9256}
    .str0 {stroke:#B9FF66;stroke-width:10;stroke-miterlimit:22.9256}
    .fil0 {fill:black}
    .fil1 {fill:#B9FF66}
   ]]>
  </style>
 </defs>
 <g id="Camada_x0020_1">
  <metadata id="CorelCorpID_0Corel-Layer"/>
  <polygon class="fil0 str0" points="2621.82,1278.52 2801.67,1522.91 2699.39,1522.92 2525.78,1278.08 "/>
  <polygon class="fil0 str0" points="2423.49,1011.76 2591.8,1011.78 2423.48,1139.51 "/>
  <path class="fil1 str1" d="M2032.81 998.9c53.13,0 102.64,15.48 144.29,42.17l-62.88 62.88c-24.5,-12.27 -52.15,-19.18 -81.41,-19.18 -100.66,0 -182.27,81.7 -182.27,182.48 0,29.22 6.88,56.83 19.07,81.31l-62.88 62.89c-26.55,-41.65 -41.95,-91.12 -41.95,-144.2 0,-148.2 120,-268.35 268.03,-268.35zm189 78.08c48.81,48.6 79.03,115.9 79.03,190.27 0,63.29 -21.9,121.45 -58.5,167.34l-61.23 -61.23c21.38,-29.9 33.97,-66.53 33.97,-106.11 0,-50.62 -20.59,-96.42 -53.84,-129.48l60.57 -60.79zm-19.87 398.44c-46.13,37.62 -105,60.18 -169.13,60.18 -74.04,0 -141.07,-30.06 -189.58,-78.65l60.57 -60.79c32.99,33.1 78.61,53.58 129.01,53.58 40.47,0 77.86,-13.22 108.1,-35.56l61.03 61.24z"/>
  <polygon class="fil0 str0" points="1426.01,1279.64 1467.09,1340.46 1346.48,1520.26 1268,1520.26 "/>
  <path class="fil1 str1" d="M1535.88 1261.52c-13.87,-21.14 -27.74,-42.29 -41.62,-63.44 13.72,-20.19 27.43,-40.37 41.15,-60.56 13.65,20.7 27.31,41.4 40.97,62.1 -13.5,20.64 -27,41.27 -40.5,61.9z"/>
  <path class="fil0 str0" d="M1268.39 1013.16c125.25,0.44 108.57,51.29 429.55,507.93l-99.11 -0.42c-110.15,-169.17 -220.3,-338.34 -330.44,-507.51z"/>
  <rect class="fil1 str1" x="935.37" y="1013.35" width="239.62" height="78.09"/>
  <rect class="fil1 str1" x="3024.34" y="1010.94" width="239.62" height="78.09"/>
  <rect class="fil1 str1" x="935.49" y="1443.29" width="239.53" height="77.67"/>
  <rect class="fil1 str1" x="3024.47" y="1440.88" width="239.53" height="77.67"/>
  <rect class="fil1 str1" x="934.15" y="1236" width="130.26" height="75.95"/>
  <rect class="fil1 str1" x="3023.12" y="1233.6" width="130.26" height="75.95"/>
  <rect class="fil1 str1" x="832.94" y="1013.31" width="83.57" height="507.65"/>
  <rect class="fil1 str1" x="2921.91" y="1010.9" width="83.57" height="507.65"/>
  <rect class="fil1 str1" x="1087.31" y="1235.96" width="74.05" height="75.98"/>
  <rect class="fil1 str1" x="3176.28" y="1233.55" width="74.05" height="75.98"/>
  <rect class="fil1 str1" transform="matrix(0.453527 -0.453527 3.8324 3.8324 1895.1 1309.59)" width="115.45" height="13.72"/>
  <rect class="fil1 str1" transform="matrix(0.453527 -0.453527 3.8324 3.8324 2058.47 1220.61)" width="115.45" height="13.72"/>
  <polygon class="fil0 str0" points="2423.44,1523.02 2505.05,1523.93 2505,1161.29 2455.45,1161.09 2423.48,1162.34 "/>
  <polygon class="fil0 str0" points="249.11,1154 332.83,1237.72 332.83,1523.96 249.05,1523.96 "/>
  <polygon class="fil0 str0" points="249.11,1013.5 671.83,1428.92 671.85,1519.91 249.12,1123.1 "/>
  <polygon class="fil0 str0" points="671.88,1013.47 671.89,1291.7 590.17,1291.71 591.31,1013.5 "/>
  <path class="fil0 str0" d="M1699.56 1011.8c-38.17,58.34 -76.33,116.68 -114.5,175.02 -13.57,-20.69 -27.14,-41.38 -40.71,-62.07 83.09,-103.04 84.01,-111.73 155.21,-112.95z"/>
  <path class="fil0 str0" d="M2618.09 1012.05c96.79,5.2 173.6,81.8 173.6,175.53 0,65.6 -37.63,122.81 -93.39,153.02l-53.99 -58.61c40.13,-14.24 68.72,-51.14 68.72,-94.41 0,-52.04 -41.34,-94.85 -94.36,-100.14l0 0 0.11 -74.96 -0.71 0 0.02 -0.43z"/>
 </g>
</svg>
